PathFileType        4      (X/Y/Z)      C:\Users\pc\Desktop\IMUTRC\Sujet_04\Sujet_04_velo_100.trc         
DataRate	CameraRate	NumFrames	NumMarkers	Units	OrigDataRate	OrigDataStartFrame	OrigNumFrames
60.0	60.0	4	64	mm	60.0	366	975
Frame#	Time	pHipOrigin			pRightASI			pLeftASI			pRightCSI			pLeftCSI			pRightIschialTub			pLeftIschialTub			pSacrum			pL5SpinalProcess			pL3SpinalProcess			pT12SpinalProcess			pIJ			pT4SpinalProcess			pT8SpinalProcess			pPX			pC7SpinalProcess			pTopOfHead			pRightAuricularis			pLeftAuricularis			pBackOfHead			pRightAcromion			pLeftAcromion			pRightArmLatEpicondyle			pRightArmMedEpicondyle			pLeftArmLatEpicondyle			pLeftArmMedEpicondyle			pRightUlnarStyloid			pRightRadialStyloid			pRightOlecranon			pLeftUlnarStyloid			pLeftRadialStyloid			pLeftOlecranon			pRightTopOfHand			pRightPinky			pRightBallHand			pLeftTopOfHand			pLeftPinky			pLeftBallHand			pRightGreaterTrochanter			pRightKneeLatEpicondyle			pRightKneeMedEpicondyle			pRightPatella			pLeftGreaterTrochanter			pLeftKneeLatEpicondyle			pLeftKneeMedEpicondyle			pLeftPatella			pRightTibialTub			pRightLatMalleolus			pRightMedMalleolus			pLeftTibialTub			pLeftLatMalleolus			pLeftMedMalleolus			pRightHeelFoot			pRightFirstMetatarsal			pRightFifthMetatarsal			pRightPivotFoot			pRightHeelCenter			pRightToe			pLeftHeelFoot			pLeftFirstMetatarsal			pLeftFifthMetatarsal			pLeftPivotFoot			pLeftHeelCenter			pLeftToe			
		X1	Y1	Z1	X2	Y2	Z2	X3	Y3	Z3	X4	Y4	Z4	X5	Y5	Z5	X6	Y6	Z6	X7	Y7	Z7	X8	Y8	Z8	X9	Y9	Z9	X10	Y10	Z10	X11	Y11	Z11	X12	Y12	Z12	X13	Y13	Z13	X14	Y14	Z14	X15	Y15	Z15	X16	Y16	Z16	X17	Y17	Z17	X18	Y18	Z18	X19	Y19	Z19	X20	Y20	Z20	X21	Y21	Z21	X22	Y22	Z22	X23	Y23	Z23	X24	Y24	Z24	X25	Y25	Z25	X26	Y26	Z26	X27	Y27	Z27	X28	Y28	Z28	X29	Y29	Z29	X30	Y30	Z30	X31	Y31	Z31	X32	Y32	Z32	X33	Y33	Z33	X34	Y34	Z34	X35	Y35	Z35	X36	Y36	Z36	X37	Y37	Z37	X38	Y38	Z38	X39	Y39	Z39	X40	Y40	Z40	X41	Y41	Z41	X42	Y42	Z42	X43	Y43	Z43	X44	Y44	Z44	X45	Y45	Z45	X46	Y46	Z46	X47	Y47	Z47	X48	Y48	Z48	X49	Y49	Z49	X50	Y50	Z50	X51	Y51	Z51	X52	Y52	Z52	X53	Y53	Z53	X54	Y54	Z54	X55	Y55	Z55	X56	Y56	Z56	X57	Y57	Z57	X58	Y58	Z58	X59	Y59	Z59	X60	Y60	Z60	X61	Y61	Z61	X62	Y62	Z62	X63	Y63	Z63	X64	Y64	Z64	
366	6.083	4.920011254230237E-14	1250.02225	5.863441087832831E-14	93.19174051573319	1319.47124	157.39240060336482	89.642122585856	1361.46227	-133.53292569776212	59.50336724927269	1402.50031	142.81876695311718	56.57529779148557	1436.86743	-95.28999406024758	-70.07831873454596	1193.14079	53.437780742275265	-71.54235729366172	1210.29457	-65.61659655046908	-66.43390724899193	1285.81886	5.983180850520181	-4.51691945997846	1382.60668	17.319047193670027	62.65617185629157	1482.84909	31.397746274950478	126.69774414238248	1572.96601	44.06098130888603	392.1769632477726	1603.28293	70.41592391195053	275.4490078118814	1708.40941	67.51754567592211	200.9881581063318	1653.19567	56.521658324732456	293.6725436131041	1523.58932	55.41402726913829	322.9545182938612	1741.1088	74.9290953860577	564.5562643680329	1819.96855	83.29874182430362	484.8664475588289	1765.23131	149.46666108597225	481.6112025171997	1776.84585	12.710458803233195	455.57138094995514	1817.10958	85.6437398468183	311.15380693048564	1677.67555	260.5513426683605	344.0170299747354	1724.90801	-114.1105782753469	328.54887117100253	1357.65032	262.74964624150294	314.3632664509705	1355.50609	197.28921571363054	384.4358421328131	1400.29652	-87.06816770423788	355.55492202607536	1401.90469	-26.601613815583534	431.38085742270505	1123.51311	211.37417188676184	479.50627924583927	1145.96789	219.4318442536802	297.7222157280598	1346.39315	228.5137372563542	439.07822327913095	1165.86151	23.363616241538438	488.9364539537934	1183.90872	31.91110606441893	345.9350038845775	1393.02999	-63.548133128759474	653.5656216879488	1076.16153	298.1606985254664	557.6087385905641	1054.36193	260.8055493067715	494.6912857280656	1096.94858	219.83024931092777	662.9149277747163	1076.69758	8.152501080404363	558.5904492755542	1074.91073	21.98191040701937	496.14408290861263	1132.14957	38.92557560452326	13.767810327669551	1210.41369	176.06380846484643	216.37061487138112	825.34704	173.53839043483657	222.52255528795646	821.77334	89.69094313297232	259.7323934924249	848.21875	130.70008734896618	19.97440169786617	1250.79655	-177.08581942055906	416.41420416561726	1071.99221	-192.12004245592	427.29019277504574	1073.243	-108.64305903390795	438.4201810701189	1116.8422	-150.32719219205381	258.77636188910344	772.21797	134.37913664486464	37.80763230888665	420.68457	80.08347681563305	56.05472445599709	425.33039	16.488152572278793	454.7012570295762	1023.33027	-152.79230229900259	205.41935737078393	687.1638	-168.09092326737502	212.55212110047748	685.43651	-102.23288029754204	-27.359348193266463	361.77801	25.67854933800013	135.7915580057931	285.59855	27.100084336256828	112.85397012048755	283.81169	108.54886690914977	145.4472383579311	274.16269	72.33609984139099	10.50885884788449	345.16029	35.96735931985056	223.92340991318355	233.83939	93.49163385018149	148.36563190674227	608.2445	-130.63598436340982	320.7079799120621	572.50745	-92.68590935271034	318.3847529952932	569.35068	-177.2748377177275	343.03345697326125	565.8961	-134.27839177521037	190.42094096770228	601.45446	-131.4802977602798	431.4986129884279	546.18116	-135.96655254336414	
367	6.1	4.920011254230237E-14	1250.02225	5.863441087832831E-14	92.1024591697143	1320.12642	157.76215271791628	90.34436665160709	1361.04533	-133.3446517446582	58.45813419781756	1403.03636	142.68504475695755	57.02422034525244	1436.56962	-95.58893475138788	-70.3536573496518	1193.25991	53.20230386967076	-71.04780147241827	1209.99676	-65.95382809951842	-66.5120598494023	1285.75929	5.426732095333239	-4.739283630608473	1382.66625	16.9613694260914	62.39551559518421	1482.96822	30.994449328215786	126.47536588343193	1573.08513	43.70330230873909	391.9561687291666	1603.04469	70.52344245292619	275.3797737009387	1708.34984	67.34237676434826	200.88063956535615	1653.25523	56.300863806126415	293.33689703696757	1523.52976	55.38465490069693	322.91623386382827	1740.98968	74.88346977902549	564.8080021396727	1819.25381	83.32075892742523	484.95036402377013	1764.69525	149.4740099234159	481.6494869472325	1776.42891	12.756084410265345	455.7318662749622	1816.69265	85.74233989832629	310.8637859613813	1677.49686	260.48368586988624	344.062663242212	1724.72932	-114.14886913325593	328.9668581321801	1357.70988	262.3211634783892	314.65171776805084	1355.50609	196.89167620355053	384.7478878654835	1400.23696	-87.25225510527937	356.1496475508509	1401.90469	-26.634134381085687	431.73852876240755	1123.57267	211.15180005568737	479.9095838530184	1146.02745	219.17118156469672	298.0945770822052	1346.45271	228.12353892327343	439.7715488554143	1165.86151	23.170610351029296	489.6827463141082	1183.96828	31.59590570681175	346.32361847731374	1392.97043	-63.64096931573667	654.0218930791593	1076.22109	297.77784136938493	558.0120431977433	1054.42149	260.54488661778805	495.01067263773524	1097.00814	219.56225187282118	663.6596363946867	1076.87627	7.372103181674561	559.3587728273112	1074.97029	21.414973510340815	496.9360008759596	1132.14957	38.57209081688319	13.098093255296689	1211.84317	176.4702676969624	228.28729077376818	833.68568	179.40058083597233	235.44617215132126	829.57592	95.64123655111165	271.32968125257395	857.56994	136.83028927652907	20.30271475744783	1248.89058	-176.9725434429287	412.4960509187153	1060.7946	-189.37658497268984	423.37203952814383	1062.87926	-105.89960155067774	435.52941623529233	1105.64459	-148.212565772014	267.4262115922389	778.7102	139.40591259730854	25.69795051599045	443.19891	73.52796083821384	45.13607868556463	448.14254	10.332778916657471	453.78611266800556	1014.45557	-150.54711473561608	224.2765291044829	664.82815	-171.0070939467908	231.11194354382508	662.74349	-105.13278241747813	-41.920336142032845	387.98518	18.147579805411368	117.44977374512789	304.30093	17.843182336121238	94.34435935781606	301.73978	99.27727489457125	126.53274567561206	291.37604	62.8599806351178	-4.907510886764699	369.40192	28.065613406029215	203.01545977867323	247.00254	83.12239381333536	170.18911826396027	582.87119	-133.63084536813437	343.50644094311144	554.75805	-93.7775539409474	342.19751025264003	551.00566	-178.3622880934577	366.52682089306245	548.80188	-135.09785237327839	212.543375676505	577.86801	-134.02624263911358	455.8342677409023	532.83933	-135.78222557282294	
368	6.117	4.920011254230237E-14	1250.02225	5.863441087832831E-14	90.2432833873461	1321.43678	158.23365950891255	91.59571063510145	1360.33059	-133.15061392702347	56.55017052303592	1404.16803	142.26446264450647	57.63205857200237	1436.03357	-96.25447169957447	-70.82777338024205	1193.4386	52.822607766402186	-70.28683318598105	1209.40114	-66.43685619170023	-66.6374166018816	1285.64017	4.44339197782158	-5.169351366634983	1382.78537	16.078199012111728	61.70637014308707	1483.26603	30.173157759859073	125.6037167706378	1573.50206	43.03516254883462	390.874228560147	1603.75943	70.80928453041253	274.2653065385408	1709.00502	67.03348565661473	199.82648802443336	1653.79129	55.78586176635366	292.45214288264344	1524.12538	55.34952509560081	321.7414651682759	1741.70442	74.78069083589953	563.7113796166545	1819.7303	83.77442107904179	483.7005973527441	1765.23131	149.74516198645938	480.6514644757224	1777.14365	13.049261236874884	454.69555171297475	1817.34783	85.98989754577971	309.0633343996993	1678.33073	260.28389061559676	343.4369803760824	1725.56319	-114.2458854444194	328.7901119081379	1358.78199	261.92520770865383	314.52059715104076	1356.51864	196.45743600378216	384.6387984399155	1401.01126	-87.93823184411914	356.04055812528287	1402.55987	-27.320111119925457	431.851804740038	1124.70435	210.82348699610571	479.94629097058294	1147.21869	218.75161729105076	297.95611528819586	1347.46526	227.7732087605701	440.00544841555046	1166.69538	22.43008185524525	489.87835501633526	1184.80214	30.809743943551155	346.2145226238697	1393.62561	-64.32695371502086	654.2940770693283	1077.53145	297.082938480633	558.1856335642804	1055.67229	260.0104767144877	495.1312962202409	1098.19937	219.15003643661885	663.9611786649765	1078.00794	6.341552484217914	559.6912583506347	1075.92328	20.513958456981413	497.222860792251	1133.04299	37.70936019355665	12.039755162311494	1213.92784	176.9695554556111	242.51263091382975	845.00241	186.90219208844027	250.9684895423538	840.3566	103.29859476330529	285.0678079809597	870.25659	144.5852079526607	20.79884789115971	1246.44855	-176.84458511129984	406.029576437348	1044.41512	-186.98291226682005	416.99681626084083	1047.15496	-103.58249770487387	430.67772860209715	1088.9673	-146.39633342520338	278.58191797562034	788.65701	145.75114517894662	17.865751214492214	469.58476	71.23618867255023	37.70875364326949	474.94532	8.245540370564648	450.3226458394013	1000.10119	-148.6516978612694	239.52548471445954	639.15704	-174.2389426325837	246.18572381435177	636.71501	-108.29540465277279	-52.47760290203868	419.37422	15.110067092651835	102.58565978572713	327.94694	10.87756595986653	79.9380928695259	323.95631	92.39400533123376	111.29312216500513	313.17563	55.354190491031886	-16.31440199599863	398.64673	24.1082167338494	185.4965443988332	264.69238	73.6415362417808	187.6890188739782	555.41323	-136.4966572705444	361.3556462165831	532.83933	-94.83715041714451	360.96975411046884	528.19352	-179.34112915752652	384.94139341118876	527.18097	-135.85432160627283	230.13611124093174	551.66084	-136.50342586046682	474.7554615342321	513.77957	-135.5642603220211	
369	6.133	4.920011254230237E-14	1250.02225	5.863441087832831E-14	87.95720215433265	1323.10451	158.75236921940942	93.01488235317045	1359.31804	-132.94190018326634	54.24467499861877	1405.65708	141.555422787099	58.437075153003335	1435.25926	-97.24097410246739	-71.34016618042081	1193.73641	52.39727962822536	-69.26677186258435	1208.56728	-66.9817759852572	-66.786374197827	1285.52105	3.246592090827029	-5.745207985349545	1382.90449	14.928609705062193	60.78751811079236	1483.68296	29.078112549309353	124.34187575263904	1574.09768	41.99466909522914	389.4110085475142	1605.01022	71.10404509736651	272.570796205366	1709.95801	66.58929504025312	198.3291701338301	1654.62515	55.020706927854064	291.2317409196144	1525.13793	55.285037010383874	319.98663921362595	1742.83609	74.54261115157712	562.0053479822941	1820.80241	84.42843795861117	481.726561852401	1766.36298	150.07978429591475	479.0969855885809	1778.39445	13.420597091770816	452.9732539842713	1818.53906	86.34653695835667	306.43110955604493	1679.70065	259.92677232168154	342.30783728756217	1726.93311	-114.38694881757829	328.3763114990227	1360.33059	261.339400673346	314.19070677899066	1358.06725	195.8789701454736	384.3146795928406	1402.26206	-89.06580404804706	355.5103206857244	1403.51286	-28.50799251745235	431.8192841745359	1126.4912	210.22876147133027	479.9284527590793	1149.0651	217.9890716921451	297.5805993091136	1348.9543	227.23302733229448	440.0316520707344	1167.88661	21.164054285184108	489.85893306448713	1186.1125	29.582000803522902	345.8903961163504	1394.75728	-65.45451949107269	654.5117093025531	1079.55655	296.04504660617715	558.3885834435067	1057.57827	259.140404914162	495.1973616179264	1100.04579	218.39482435426805	664.1699064970541	1079.61611	4.922381998717242	559.8852961682694	1077.41233	19.26261447348702	497.2873629657885	1134.35335	36.48895946309602	10.592788388269526	1216.54855	177.56167816866866	258.9700535757478	859.71416	195.95195765728715	268.89070952937305	854.35361	112.51878964587641	300.8628470870596	886.45739	153.9575291444346	21.088868860264043	1243.47046	-176.77692831282553	396.4966304846819	1023.62807	-184.8152448982999	407.80686572175495	1026.96353	-101.46937443285353	423.2321005552807	1067.46552	-144.8915937652758	292.4495726876589	801.82015	153.47512702992066	13.942866030185012	499.78257	72.58407651374587	33.7858684589623	505.56005	9.593428211760301	444.0208432351034	981.10099	-147.17371490231315	251.48716024621083	610.50784	-177.58927934731886	258.0251972185606	607.64888	-111.69870172366325	-59.065239923378414	454.99214	15.50610345471237	91.18296165643173	356.23877	5.905887149709706	69.25232239254838	350.2826	87.44276631173013	99.6517925381684	339.44236	49.727470534624544	-23.851840730542868	432.17999	23.27966458081852	171.48150174287326	286.73022	65.18595081236651	201.07878461326607	525.81105	-139.2570003979094	374.75907004318833	506.87041	-95.82065048673797	375.2123000564901	501.09292	-180.2512226524354	398.8262667849391	501.09292	-136.54202918178672	243.57307989972028	522.83296	-138.8368635371866	488.8113172674939	489.2997	-135.30691221005634	
